<mxfile host="app.diagrams.net" modified="2023-06-07T10:05:22.824Z" agent="Mozilla/5.0 (Windows NT 10.0; Win64; x64) AppleWebKit/537.36 (KHTML, like Gecko) Chrome/114.0.0.0 Safari/537.36" etag="MsGpSnxVnUZ8ndJS_xxD" version="21.3.7" type="device">
  <diagram name="Page-1" id="s2qPil3u2pDpwETOjRgn">
    <mxGraphModel dx="4037" dy="1769" grid="1" gridSize="10" guides="1" tooltips="1" connect="1" arrows="1" fold="1" page="1" pageScale="1" pageWidth="850" pageHeight="1100" math="0" shadow="0">
      <root>
        <mxCell id="0" />
        <mxCell id="1" parent="0" />
        <mxCell id="BKznCU0ouDqVTdRnz1dK-52" value="" style="rounded=0;whiteSpace=wrap;html=1;" vertex="1" parent="1">
          <mxGeometry x="1040" y="310" width="210" height="100" as="geometry" />
        </mxCell>
        <mxCell id="BKznCU0ouDqVTdRnz1dK-50" value="" style="rounded=0;whiteSpace=wrap;html=1;" vertex="1" parent="1">
          <mxGeometry x="790" y="310" width="210" height="100" as="geometry" />
        </mxCell>
        <mxCell id="BKznCU0ouDqVTdRnz1dK-1" value="" style="rounded=0;whiteSpace=wrap;html=1;" vertex="1" parent="1">
          <mxGeometry x="-510" y="310" width="210" height="100" as="geometry" />
        </mxCell>
        <mxCell id="BKznCU0ouDqVTdRnz1dK-2" value="&lt;b&gt;&lt;font style=&quot;font-size: 13px;&quot;&gt;Level III: singletonFatories&lt;/font&gt;&lt;/b&gt;" style="text;html=1;align=center;verticalAlign=middle;resizable=0;points=[];autosize=1;strokeColor=none;fillColor=none;" vertex="1" parent="1">
          <mxGeometry x="-500" y="270" width="190" height="30" as="geometry" />
        </mxCell>
        <mxCell id="BKznCU0ouDqVTdRnz1dK-3" value="userService:" style="text;html=1;strokeColor=none;fillColor=none;align=center;verticalAlign=middle;whiteSpace=wrap;rounded=0;" vertex="1" parent="1">
          <mxGeometry x="-500" y="320" width="60" height="30" as="geometry" />
        </mxCell>
        <mxCell id="BKznCU0ouDqVTdRnz1dK-4" value="userDao:" style="text;html=1;strokeColor=none;fillColor=none;align=center;verticalAlign=middle;whiteSpace=wrap;rounded=0;" vertex="1" parent="1">
          <mxGeometry x="-500" y="370" width="60" height="30" as="geometry" />
        </mxCell>
        <mxCell id="BKznCU0ouDqVTdRnz1dK-6" value="ObjectFactory" style="rounded=0;whiteSpace=wrap;html=1;fillColor=#d5e8d4;strokeColor=#82b366;" vertex="1" parent="1">
          <mxGeometry x="-430" y="365" width="120" height="40" as="geometry" />
        </mxCell>
        <mxCell id="BKznCU0ouDqVTdRnz1dK-7" value="ObjectFactory" style="rounded=0;whiteSpace=wrap;html=1;fillColor=#d5e8d4;strokeColor=#82b366;" vertex="1" parent="1">
          <mxGeometry x="-430" y="315" width="120" height="40" as="geometry" />
        </mxCell>
        <mxCell id="BKznCU0ouDqVTdRnz1dK-8" value="" style="rounded=0;whiteSpace=wrap;html=1;" vertex="1" parent="1">
          <mxGeometry x="-260" y="310" width="210" height="100" as="geometry" />
        </mxCell>
        <mxCell id="BKznCU0ouDqVTdRnz1dK-9" value="&lt;b&gt;&lt;font style=&quot;font-size: 13px;&quot;&gt;Level II: earlySingletonObjects&lt;/font&gt;&lt;/b&gt;" style="text;html=1;align=center;verticalAlign=middle;resizable=0;points=[];autosize=1;strokeColor=none;fillColor=none;" vertex="1" parent="1">
          <mxGeometry x="-260" y="270" width="210" height="30" as="geometry" />
        </mxCell>
        <mxCell id="BKznCU0ouDqVTdRnz1dK-14" value="" style="rounded=0;whiteSpace=wrap;html=1;" vertex="1" parent="1">
          <mxGeometry x="-10" y="310" width="210" height="100" as="geometry" />
        </mxCell>
        <mxCell id="BKznCU0ouDqVTdRnz1dK-15" value="&lt;b&gt;&lt;font style=&quot;font-size: 13px;&quot;&gt;Level I: singletonObjects&lt;/font&gt;&lt;/b&gt;" style="text;html=1;align=center;verticalAlign=middle;resizable=0;points=[];autosize=1;strokeColor=none;fillColor=none;" vertex="1" parent="1">
          <mxGeometry x="5" y="270" width="180" height="30" as="geometry" />
        </mxCell>
        <mxCell id="BKznCU0ouDqVTdRnz1dK-20" value="" style="edgeStyle=orthogonalEdgeStyle;rounded=0;orthogonalLoop=1;jettySize=auto;html=1;" edge="1" parent="1" source="BKznCU0ouDqVTdRnz1dK-16" target="BKznCU0ouDqVTdRnz1dK-19">
          <mxGeometry relative="1" as="geometry" />
        </mxCell>
        <mxCell id="BKznCU0ouDqVTdRnz1dK-26" value="" style="edgeStyle=orthogonalEdgeStyle;rounded=0;orthogonalLoop=1;jettySize=auto;html=1;dashed=1;" edge="1" parent="1" source="BKznCU0ouDqVTdRnz1dK-16" target="BKznCU0ouDqVTdRnz1dK-25">
          <mxGeometry relative="1" as="geometry" />
        </mxCell>
        <mxCell id="BKznCU0ouDqVTdRnz1dK-16" value="Instantiate userService" style="rounded=1;whiteSpace=wrap;html=1;fillColor=#3FBD38;strokeColor=#000000;" vertex="1" parent="1">
          <mxGeometry x="-505" y="510" width="120" height="40" as="geometry" />
        </mxCell>
        <mxCell id="BKznCU0ouDqVTdRnz1dK-18" value="" style="edgeStyle=orthogonalEdgeStyle;rounded=0;orthogonalLoop=1;jettySize=auto;html=1;" edge="1" parent="1" source="BKznCU0ouDqVTdRnz1dK-17" target="BKznCU0ouDqVTdRnz1dK-16">
          <mxGeometry relative="1" as="geometry" />
        </mxCell>
        <mxCell id="BKznCU0ouDqVTdRnz1dK-17" value="&lt;b&gt;&lt;font style=&quot;font-size: 13px;&quot;&gt;getBean(*userService*)&lt;/font&gt;&lt;/b&gt;" style="text;html=1;align=center;verticalAlign=middle;resizable=0;points=[];autosize=1;strokeColor=none;fillColor=none;" vertex="1" parent="1">
          <mxGeometry x="-710" y="515" width="170" height="30" as="geometry" />
        </mxCell>
        <mxCell id="BKznCU0ouDqVTdRnz1dK-22" value="" style="edgeStyle=orthogonalEdgeStyle;rounded=0;orthogonalLoop=1;jettySize=auto;html=1;" edge="1" parent="1" source="BKznCU0ouDqVTdRnz1dK-19" target="BKznCU0ouDqVTdRnz1dK-21">
          <mxGeometry relative="1" as="geometry" />
        </mxCell>
        <mxCell id="BKznCU0ouDqVTdRnz1dK-19" value="userService Initialization&lt;br&gt;(property populate: userDao)" style="rounded=1;whiteSpace=wrap;html=1;fillColor=#ffe6cc;strokeColor=#000000;" vertex="1" parent="1">
          <mxGeometry x="-300" y="510" width="200" height="40" as="geometry" />
        </mxCell>
        <mxCell id="BKznCU0ouDqVTdRnz1dK-30" style="edgeStyle=orthogonalEdgeStyle;rounded=0;orthogonalLoop=1;jettySize=auto;html=1;" edge="1" parent="1" source="BKznCU0ouDqVTdRnz1dK-21" target="BKznCU0ouDqVTdRnz1dK-29">
          <mxGeometry relative="1" as="geometry">
            <Array as="points">
              <mxPoint x="40" y="680" />
              <mxPoint x="-445" y="680" />
            </Array>
          </mxGeometry>
        </mxCell>
        <mxCell id="BKznCU0ouDqVTdRnz1dK-31" value="Not found!" style="edgeLabel;html=1;align=center;verticalAlign=middle;resizable=0;points=[];" vertex="1" connectable="0" parent="BKznCU0ouDqVTdRnz1dK-30">
          <mxGeometry x="0.1602" y="-1" relative="1" as="geometry">
            <mxPoint as="offset" />
          </mxGeometry>
        </mxCell>
        <mxCell id="BKznCU0ouDqVTdRnz1dK-21" value="Obtain userDao from Level I, II, III" style="shape=parallelogram;perimeter=parallelogramPerimeter;whiteSpace=wrap;html=1;fixedSize=1;fillColor=#dae8fc;strokeColor=#6c8ebf;" vertex="1" parent="1">
          <mxGeometry x="-30" y="500" width="140" height="60" as="geometry" />
        </mxCell>
        <mxCell id="BKznCU0ouDqVTdRnz1dK-23" value="" style="endArrow=classic;html=1;rounded=0;entryX=0.668;entryY=1.007;entryDx=0;entryDy=0;entryPerimeter=0;dashed=1;" edge="1" parent="1" target="BKznCU0ouDqVTdRnz1dK-1">
          <mxGeometry width="50" height="50" relative="1" as="geometry">
            <mxPoint x="-370" y="530" as="sourcePoint" />
            <mxPoint x="-370" y="420" as="targetPoint" />
          </mxGeometry>
        </mxCell>
        <mxCell id="BKznCU0ouDqVTdRnz1dK-24" value="Cache userService to Level III" style="edgeLabel;html=1;align=center;verticalAlign=middle;resizable=0;points=[];" vertex="1" connectable="0" parent="BKznCU0ouDqVTdRnz1dK-23">
          <mxGeometry x="0.112" relative="1" as="geometry">
            <mxPoint x="-50" y="-4" as="offset" />
          </mxGeometry>
        </mxCell>
        <mxCell id="BKznCU0ouDqVTdRnz1dK-25" value="Store userService into RAM" style="rounded=1;whiteSpace=wrap;html=1;fillColor=#f5f5f5;strokeColor=#666666;fontColor=#333333;" vertex="1" parent="1">
          <mxGeometry x="-505" y="590" width="120" height="40" as="geometry" />
        </mxCell>
        <mxCell id="BKznCU0ouDqVTdRnz1dK-27" value="addr: X001" style="text;html=1;align=center;verticalAlign=middle;resizable=0;points=[];autosize=1;strokeColor=none;fillColor=none;" vertex="1" parent="1">
          <mxGeometry x="-580" y="595" width="80" height="30" as="geometry" />
        </mxCell>
        <mxCell id="BKznCU0ouDqVTdRnz1dK-28" value="semi-completed Bean" style="text;html=1;align=center;verticalAlign=middle;resizable=0;points=[];autosize=1;strokeColor=none;fillColor=none;" vertex="1" parent="1">
          <mxGeometry x="-520" y="628" width="140" height="30" as="geometry" />
        </mxCell>
        <mxCell id="BKznCU0ouDqVTdRnz1dK-35" value="" style="edgeStyle=orthogonalEdgeStyle;rounded=0;orthogonalLoop=1;jettySize=auto;html=1;" edge="1" parent="1" source="BKznCU0ouDqVTdRnz1dK-29" target="BKznCU0ouDqVTdRnz1dK-34">
          <mxGeometry relative="1" as="geometry" />
        </mxCell>
        <mxCell id="BKznCU0ouDqVTdRnz1dK-40" value="" style="edgeStyle=orthogonalEdgeStyle;rounded=0;orthogonalLoop=1;jettySize=auto;html=1;dashed=1;" edge="1" parent="1" source="BKznCU0ouDqVTdRnz1dK-29" target="BKznCU0ouDqVTdRnz1dK-36">
          <mxGeometry relative="1" as="geometry" />
        </mxCell>
        <mxCell id="BKznCU0ouDqVTdRnz1dK-29" value="Instantiate userDao" style="rounded=1;whiteSpace=wrap;html=1;fillColor=#3FBD38;strokeColor=#000000;" vertex="1" parent="1">
          <mxGeometry x="-505" y="720" width="120" height="40" as="geometry" />
        </mxCell>
        <mxCell id="BKznCU0ouDqVTdRnz1dK-32" value="" style="endArrow=classic;html=1;rounded=0;entryX=0.809;entryY=1;entryDx=0;entryDy=0;entryPerimeter=0;dashed=1;" edge="1" parent="1" target="BKznCU0ouDqVTdRnz1dK-1">
          <mxGeometry width="50" height="50" relative="1" as="geometry">
            <mxPoint x="-340" y="740" as="sourcePoint" />
            <mxPoint x="-340" y="560" as="targetPoint" />
          </mxGeometry>
        </mxCell>
        <mxCell id="BKznCU0ouDqVTdRnz1dK-33" value="Cache userDao to Level III" style="edgeLabel;html=1;align=center;verticalAlign=middle;resizable=0;points=[];" vertex="1" connectable="0" parent="BKznCU0ouDqVTdRnz1dK-32">
          <mxGeometry x="0.112" relative="1" as="geometry">
            <mxPoint x="40" y="71" as="offset" />
          </mxGeometry>
        </mxCell>
        <mxCell id="BKznCU0ouDqVTdRnz1dK-42" value="" style="edgeStyle=orthogonalEdgeStyle;rounded=0;orthogonalLoop=1;jettySize=auto;html=1;" edge="1" parent="1" source="BKznCU0ouDqVTdRnz1dK-34" target="BKznCU0ouDqVTdRnz1dK-41">
          <mxGeometry relative="1" as="geometry" />
        </mxCell>
        <mxCell id="BKznCU0ouDqVTdRnz1dK-34" value="userDao Initialization&lt;br&gt;(property populate: userService)" style="rounded=1;whiteSpace=wrap;html=1;fillColor=#ffe6cc;strokeColor=#000000;" vertex="1" parent="1">
          <mxGeometry x="-300" y="720" width="200" height="40" as="geometry" />
        </mxCell>
        <mxCell id="BKznCU0ouDqVTdRnz1dK-36" value="Store userDao into RAM" style="rounded=1;whiteSpace=wrap;html=1;fillColor=#f5f5f5;strokeColor=#666666;fontColor=#333333;" vertex="1" parent="1">
          <mxGeometry x="-505" y="800" width="120" height="40" as="geometry" />
        </mxCell>
        <mxCell id="BKznCU0ouDqVTdRnz1dK-37" value="addr: X002" style="text;html=1;align=center;verticalAlign=middle;resizable=0;points=[];autosize=1;strokeColor=none;fillColor=none;" vertex="1" parent="1">
          <mxGeometry x="-580" y="805" width="80" height="30" as="geometry" />
        </mxCell>
        <mxCell id="BKznCU0ouDqVTdRnz1dK-38" value="semi-completed Bean" style="text;html=1;align=center;verticalAlign=middle;resizable=0;points=[];autosize=1;strokeColor=none;fillColor=none;" vertex="1" parent="1">
          <mxGeometry x="-515" y="840" width="140" height="30" as="geometry" />
        </mxCell>
        <mxCell id="BKznCU0ouDqVTdRnz1dK-41" value="Obtain userService from Level I, II, III" style="shape=parallelogram;perimeter=parallelogramPerimeter;whiteSpace=wrap;html=1;fixedSize=1;fillColor=#dae8fc;strokeColor=#6c8ebf;" vertex="1" parent="1">
          <mxGeometry x="-40" y="710" width="160" height="60" as="geometry" />
        </mxCell>
        <mxCell id="BKznCU0ouDqVTdRnz1dK-43" value="" style="endArrow=none;dashed=1;html=1;rounded=0;fillColor=#d5e8d4;strokeColor=#82B366;strokeWidth=3;" edge="1" parent="1">
          <mxGeometry width="50" height="50" relative="1" as="geometry">
            <mxPoint x="280" y="1070" as="sourcePoint" />
            <mxPoint x="280" y="10" as="targetPoint" />
          </mxGeometry>
        </mxCell>
        <mxCell id="BKznCU0ouDqVTdRnz1dK-44" value="" style="rounded=0;whiteSpace=wrap;html=1;" vertex="1" parent="1">
          <mxGeometry x="540" y="310" width="210" height="100" as="geometry" />
        </mxCell>
        <mxCell id="BKznCU0ouDqVTdRnz1dK-45" value="&lt;b&gt;&lt;font style=&quot;font-size: 13px;&quot;&gt;Level III: singletonFatories&lt;/font&gt;&lt;/b&gt;" style="text;html=1;align=center;verticalAlign=middle;resizable=0;points=[];autosize=1;strokeColor=none;fillColor=none;" vertex="1" parent="1">
          <mxGeometry x="550" y="270" width="190" height="30" as="geometry" />
        </mxCell>
        <mxCell id="BKznCU0ouDqVTdRnz1dK-46" value="userService:" style="text;html=1;strokeColor=none;fillColor=none;align=center;verticalAlign=middle;whiteSpace=wrap;rounded=0;" vertex="1" parent="1">
          <mxGeometry x="800" y="320" width="60" height="30" as="geometry" />
        </mxCell>
        <mxCell id="BKznCU0ouDqVTdRnz1dK-47" value="userDao:" style="text;html=1;strokeColor=none;fillColor=none;align=center;verticalAlign=middle;whiteSpace=wrap;rounded=0;" vertex="1" parent="1">
          <mxGeometry x="1050" y="365" width="60" height="30" as="geometry" />
        </mxCell>
        <mxCell id="BKznCU0ouDqVTdRnz1dK-48" value="UserDao" style="rounded=0;whiteSpace=wrap;html=1;fillColor=#d5e8d4;strokeColor=#82b366;" vertex="1" parent="1">
          <mxGeometry x="1120" y="360" width="120" height="40" as="geometry" />
        </mxCell>
        <mxCell id="BKznCU0ouDqVTdRnz1dK-49" value="UserService" style="rounded=0;whiteSpace=wrap;html=1;fillColor=#d5e8d4;strokeColor=#82b366;" vertex="1" parent="1">
          <mxGeometry x="870" y="315" width="120" height="40" as="geometry" />
        </mxCell>
        <mxCell id="BKznCU0ouDqVTdRnz1dK-51" value="&lt;b&gt;&lt;font style=&quot;font-size: 13px;&quot;&gt;Level II: earlySingletonObjects&lt;/font&gt;&lt;/b&gt;" style="text;html=1;align=center;verticalAlign=middle;resizable=0;points=[];autosize=1;strokeColor=none;fillColor=none;" vertex="1" parent="1">
          <mxGeometry x="790" y="270" width="210" height="30" as="geometry" />
        </mxCell>
        <mxCell id="BKznCU0ouDqVTdRnz1dK-53" value="&lt;b&gt;&lt;font style=&quot;font-size: 13px;&quot;&gt;Level I: singletonObjects&lt;/font&gt;&lt;/b&gt;" style="text;html=1;align=center;verticalAlign=middle;resizable=0;points=[];autosize=1;strokeColor=none;fillColor=none;" vertex="1" parent="1">
          <mxGeometry x="1055" y="270" width="180" height="30" as="geometry" />
        </mxCell>
        <mxCell id="BKznCU0ouDqVTdRnz1dK-54" value="" style="edgeStyle=orthogonalEdgeStyle;rounded=0;orthogonalLoop=1;jettySize=auto;html=1;" edge="1" parent="1" source="BKznCU0ouDqVTdRnz1dK-56" target="BKznCU0ouDqVTdRnz1dK-60">
          <mxGeometry relative="1" as="geometry" />
        </mxCell>
        <mxCell id="BKznCU0ouDqVTdRnz1dK-55" value="" style="edgeStyle=orthogonalEdgeStyle;rounded=0;orthogonalLoop=1;jettySize=auto;html=1;dashed=1;" edge="1" parent="1" source="BKznCU0ouDqVTdRnz1dK-56" target="BKznCU0ouDqVTdRnz1dK-66">
          <mxGeometry relative="1" as="geometry" />
        </mxCell>
        <mxCell id="BKznCU0ouDqVTdRnz1dK-56" value="Instantiate userService" style="rounded=1;whiteSpace=wrap;html=1;fillColor=#3FBD38;strokeColor=#000000;" vertex="1" parent="1">
          <mxGeometry x="545" y="510" width="120" height="40" as="geometry" />
        </mxCell>
        <mxCell id="BKznCU0ouDqVTdRnz1dK-57" value="" style="edgeStyle=orthogonalEdgeStyle;rounded=0;orthogonalLoop=1;jettySize=auto;html=1;" edge="1" parent="1" source="BKznCU0ouDqVTdRnz1dK-58" target="BKznCU0ouDqVTdRnz1dK-56">
          <mxGeometry relative="1" as="geometry" />
        </mxCell>
        <mxCell id="BKznCU0ouDqVTdRnz1dK-58" value="&lt;b&gt;&lt;font style=&quot;font-size: 13px;&quot;&gt;getBean(*userService*)&lt;/font&gt;&lt;/b&gt;" style="text;html=1;align=center;verticalAlign=middle;resizable=0;points=[];autosize=1;strokeColor=none;fillColor=none;" vertex="1" parent="1">
          <mxGeometry x="340" y="515" width="170" height="30" as="geometry" />
        </mxCell>
        <mxCell id="BKznCU0ouDqVTdRnz1dK-59" value="" style="edgeStyle=orthogonalEdgeStyle;rounded=0;orthogonalLoop=1;jettySize=auto;html=1;" edge="1" parent="1" source="BKznCU0ouDqVTdRnz1dK-60" target="BKznCU0ouDqVTdRnz1dK-63">
          <mxGeometry relative="1" as="geometry" />
        </mxCell>
        <mxCell id="BKznCU0ouDqVTdRnz1dK-60" value="userService Initialization&lt;br&gt;(property populate: userDao)" style="rounded=1;whiteSpace=wrap;html=1;fillColor=#ffe6cc;strokeColor=#000000;" vertex="1" parent="1">
          <mxGeometry x="750" y="510" width="200" height="40" as="geometry" />
        </mxCell>
        <mxCell id="BKznCU0ouDqVTdRnz1dK-61" style="edgeStyle=orthogonalEdgeStyle;rounded=0;orthogonalLoop=1;jettySize=auto;html=1;" edge="1" parent="1" source="BKznCU0ouDqVTdRnz1dK-63" target="BKznCU0ouDqVTdRnz1dK-71">
          <mxGeometry relative="1" as="geometry">
            <Array as="points">
              <mxPoint x="1090" y="680" />
              <mxPoint x="605" y="680" />
            </Array>
          </mxGeometry>
        </mxCell>
        <mxCell id="BKznCU0ouDqVTdRnz1dK-62" value="Not found!" style="edgeLabel;html=1;align=center;verticalAlign=middle;resizable=0;points=[];" vertex="1" connectable="0" parent="BKznCU0ouDqVTdRnz1dK-61">
          <mxGeometry x="0.1602" y="-1" relative="1" as="geometry">
            <mxPoint as="offset" />
          </mxGeometry>
        </mxCell>
        <mxCell id="BKznCU0ouDqVTdRnz1dK-63" value="Obtain userDao from Level I, II, III" style="shape=parallelogram;perimeter=parallelogramPerimeter;whiteSpace=wrap;html=1;fixedSize=1;fillColor=#dae8fc;strokeColor=#6c8ebf;" vertex="1" parent="1">
          <mxGeometry x="1020" y="500" width="140" height="60" as="geometry" />
        </mxCell>
        <mxCell id="BKznCU0ouDqVTdRnz1dK-64" value="" style="endArrow=classic;html=1;rounded=0;entryX=0.668;entryY=1.007;entryDx=0;entryDy=0;entryPerimeter=0;dashed=1;" edge="1" parent="1" target="BKznCU0ouDqVTdRnz1dK-44">
          <mxGeometry width="50" height="50" relative="1" as="geometry">
            <mxPoint x="680" y="530" as="sourcePoint" />
            <mxPoint x="680" y="420" as="targetPoint" />
          </mxGeometry>
        </mxCell>
        <mxCell id="BKznCU0ouDqVTdRnz1dK-65" value="Cache userService to Level III" style="edgeLabel;html=1;align=center;verticalAlign=middle;resizable=0;points=[];" vertex="1" connectable="0" parent="BKznCU0ouDqVTdRnz1dK-64">
          <mxGeometry x="0.112" relative="1" as="geometry">
            <mxPoint x="-50" y="-4" as="offset" />
          </mxGeometry>
        </mxCell>
        <mxCell id="BKznCU0ouDqVTdRnz1dK-66" value="Store userService into RAM" style="rounded=1;whiteSpace=wrap;html=1;fillColor=#f5f5f5;strokeColor=#666666;fontColor=#333333;" vertex="1" parent="1">
          <mxGeometry x="545" y="590" width="120" height="40" as="geometry" />
        </mxCell>
        <mxCell id="BKznCU0ouDqVTdRnz1dK-67" value="addr: X001" style="text;html=1;align=center;verticalAlign=middle;resizable=0;points=[];autosize=1;strokeColor=none;fillColor=none;" vertex="1" parent="1">
          <mxGeometry x="470" y="595" width="80" height="30" as="geometry" />
        </mxCell>
        <mxCell id="BKznCU0ouDqVTdRnz1dK-68" value="semi-completed Bean" style="text;html=1;align=center;verticalAlign=middle;resizable=0;points=[];autosize=1;strokeColor=none;fillColor=none;" vertex="1" parent="1">
          <mxGeometry x="530" y="628" width="140" height="30" as="geometry" />
        </mxCell>
        <mxCell id="BKznCU0ouDqVTdRnz1dK-69" value="" style="edgeStyle=orthogonalEdgeStyle;rounded=0;orthogonalLoop=1;jettySize=auto;html=1;" edge="1" parent="1" source="BKznCU0ouDqVTdRnz1dK-71" target="BKznCU0ouDqVTdRnz1dK-75">
          <mxGeometry relative="1" as="geometry" />
        </mxCell>
        <mxCell id="BKznCU0ouDqVTdRnz1dK-70" value="" style="edgeStyle=orthogonalEdgeStyle;rounded=0;orthogonalLoop=1;jettySize=auto;html=1;dashed=1;" edge="1" parent="1" source="BKznCU0ouDqVTdRnz1dK-71" target="BKznCU0ouDqVTdRnz1dK-76">
          <mxGeometry relative="1" as="geometry" />
        </mxCell>
        <mxCell id="BKznCU0ouDqVTdRnz1dK-71" value="Instantiate userDao" style="rounded=1;whiteSpace=wrap;html=1;fillColor=#3FBD38;strokeColor=#000000;" vertex="1" parent="1">
          <mxGeometry x="545" y="720" width="120" height="40" as="geometry" />
        </mxCell>
        <mxCell id="BKznCU0ouDqVTdRnz1dK-72" value="" style="endArrow=classic;html=1;rounded=0;entryX=0.809;entryY=1;entryDx=0;entryDy=0;entryPerimeter=0;dashed=1;" edge="1" parent="1" target="BKznCU0ouDqVTdRnz1dK-44">
          <mxGeometry width="50" height="50" relative="1" as="geometry">
            <mxPoint x="710" y="740" as="sourcePoint" />
            <mxPoint x="710" y="560" as="targetPoint" />
          </mxGeometry>
        </mxCell>
        <mxCell id="BKznCU0ouDqVTdRnz1dK-73" value="Cache userDao to Level III" style="edgeLabel;html=1;align=center;verticalAlign=middle;resizable=0;points=[];" vertex="1" connectable="0" parent="BKznCU0ouDqVTdRnz1dK-72">
          <mxGeometry x="0.112" relative="1" as="geometry">
            <mxPoint x="40" y="71" as="offset" />
          </mxGeometry>
        </mxCell>
        <mxCell id="BKznCU0ouDqVTdRnz1dK-74" value="" style="edgeStyle=orthogonalEdgeStyle;rounded=0;orthogonalLoop=1;jettySize=auto;html=1;" edge="1" parent="1" source="BKznCU0ouDqVTdRnz1dK-75" target="BKznCU0ouDqVTdRnz1dK-79">
          <mxGeometry relative="1" as="geometry" />
        </mxCell>
        <mxCell id="BKznCU0ouDqVTdRnz1dK-75" value="userDao Initialization&lt;br&gt;(property populate: userService)" style="rounded=1;whiteSpace=wrap;html=1;fillColor=#ffe6cc;strokeColor=#000000;" vertex="1" parent="1">
          <mxGeometry x="750" y="720" width="200" height="40" as="geometry" />
        </mxCell>
        <mxCell id="BKznCU0ouDqVTdRnz1dK-76" value="Store userDao into RAM" style="rounded=1;whiteSpace=wrap;html=1;fillColor=#f5f5f5;strokeColor=#666666;fontColor=#333333;" vertex="1" parent="1">
          <mxGeometry x="545" y="800" width="120" height="40" as="geometry" />
        </mxCell>
        <mxCell id="BKznCU0ouDqVTdRnz1dK-77" value="addr: X002" style="text;html=1;align=center;verticalAlign=middle;resizable=0;points=[];autosize=1;strokeColor=none;fillColor=none;" vertex="1" parent="1">
          <mxGeometry x="470" y="805" width="80" height="30" as="geometry" />
        </mxCell>
        <mxCell id="BKznCU0ouDqVTdRnz1dK-78" value="semi-completed Bean" style="text;html=1;align=center;verticalAlign=middle;resizable=0;points=[];autosize=1;strokeColor=none;fillColor=none;" vertex="1" parent="1">
          <mxGeometry x="535" y="840" width="140" height="30" as="geometry" />
        </mxCell>
        <mxCell id="BKznCU0ouDqVTdRnz1dK-81" value="" style="edgeStyle=orthogonalEdgeStyle;rounded=0;orthogonalLoop=1;jettySize=auto;html=1;" edge="1" parent="1" source="BKznCU0ouDqVTdRnz1dK-79" target="BKznCU0ouDqVTdRnz1dK-80">
          <mxGeometry relative="1" as="geometry" />
        </mxCell>
        <mxCell id="BKznCU0ouDqVTdRnz1dK-82" value="Level III has userService" style="edgeLabel;html=1;align=center;verticalAlign=middle;resizable=0;points=[];" vertex="1" connectable="0" parent="BKznCU0ouDqVTdRnz1dK-81">
          <mxGeometry x="-0.1744" y="4" relative="1" as="geometry">
            <mxPoint as="offset" />
          </mxGeometry>
        </mxCell>
        <mxCell id="BKznCU0ouDqVTdRnz1dK-79" value="Obtain userService from Level I, II, III" style="shape=parallelogram;perimeter=parallelogramPerimeter;whiteSpace=wrap;html=1;fixedSize=1;fillColor=#dae8fc;strokeColor=#6c8ebf;" vertex="1" parent="1">
          <mxGeometry x="1010" y="710" width="160" height="60" as="geometry" />
        </mxCell>
        <mxCell id="BKznCU0ouDqVTdRnz1dK-85" value="" style="edgeStyle=orthogonalEdgeStyle;rounded=0;orthogonalLoop=1;jettySize=auto;html=1;" edge="1" parent="1" source="BKznCU0ouDqVTdRnz1dK-80" target="BKznCU0ouDqVTdRnz1dK-84">
          <mxGeometry relative="1" as="geometry" />
        </mxCell>
        <mxCell id="BKznCU0ouDqVTdRnz1dK-80" value="From Level III obtain userService (useing Object&#39;s getObject() method and return userService&#39;s Object). Then Populate to userDao. Remove userService from Level III and cache into Level II" style="rounded=0;whiteSpace=wrap;html=1;dashed=1;" vertex="1" parent="1">
          <mxGeometry x="1390" y="700" width="250" height="80" as="geometry" />
        </mxCell>
        <mxCell id="BKznCU0ouDqVTdRnz1dK-83" value="" style="endArrow=classic;html=1;rounded=0;exitX=0;exitY=0;exitDx=0;exitDy=0;entryX=0.75;entryY=1;entryDx=0;entryDy=0;strokeColor=#f40b0b;strokeWidth=4;dashed=1;dashPattern=1 2;" edge="1" parent="1" source="BKznCU0ouDqVTdRnz1dK-80" target="BKznCU0ouDqVTdRnz1dK-50">
          <mxGeometry width="50" height="50" relative="1" as="geometry">
            <mxPoint x="1330" y="660" as="sourcePoint" />
            <mxPoint x="1380" y="610" as="targetPoint" />
          </mxGeometry>
        </mxCell>
        <mxCell id="BKznCU0ouDqVTdRnz1dK-84" value="userDao&#39;s properties have been populated, continue userDao&#39;s other initialization process and to be a complete Bean object. Remove userDao from Level III and cache it into Level I&amp;nbsp;" style="rounded=0;whiteSpace=wrap;html=1;dashed=1;" vertex="1" parent="1">
          <mxGeometry x="1380" y="570" width="270" height="80" as="geometry" />
        </mxCell>
        <mxCell id="BKznCU0ouDqVTdRnz1dK-86" value="" style="endArrow=classic;html=1;rounded=0;entryX=0.5;entryY=1;entryDx=0;entryDy=0;strokeColor=#f40b0b;strokeWidth=4;dashed=1;dashPattern=1 2;" edge="1" parent="1" source="BKznCU0ouDqVTdRnz1dK-84" target="BKznCU0ouDqVTdRnz1dK-52">
          <mxGeometry width="50" height="50" relative="1" as="geometry">
            <mxPoint x="1400" y="710" as="sourcePoint" />
            <mxPoint x="958" y="420" as="targetPoint" />
          </mxGeometry>
        </mxCell>
        <mxCell id="BKznCU0ouDqVTdRnz1dK-87" value="" style="endArrow=none;dashed=1;html=1;rounded=0;fillColor=#d5e8d4;strokeColor=#82B366;strokeWidth=3;" edge="1" parent="1">
          <mxGeometry width="50" height="50" relative="1" as="geometry">
            <mxPoint x="1718" y="1080" as="sourcePoint" />
            <mxPoint x="1718" y="20" as="targetPoint" />
          </mxGeometry>
        </mxCell>
        <mxCell id="BKznCU0ouDqVTdRnz1dK-131" value="" style="rounded=0;whiteSpace=wrap;html=1;" vertex="1" parent="1">
          <mxGeometry x="2490" y="310" width="210" height="100" as="geometry" />
        </mxCell>
        <mxCell id="BKznCU0ouDqVTdRnz1dK-132" value="" style="rounded=0;whiteSpace=wrap;html=1;" vertex="1" parent="1">
          <mxGeometry x="2240" y="310" width="210" height="100" as="geometry" />
        </mxCell>
        <mxCell id="BKznCU0ouDqVTdRnz1dK-133" value="" style="rounded=0;whiteSpace=wrap;html=1;" vertex="1" parent="1">
          <mxGeometry x="1990" y="310" width="210" height="100" as="geometry" />
        </mxCell>
        <mxCell id="BKznCU0ouDqVTdRnz1dK-134" value="&lt;b&gt;&lt;font style=&quot;font-size: 13px;&quot;&gt;Level III: singletonFatories&lt;/font&gt;&lt;/b&gt;" style="text;html=1;align=center;verticalAlign=middle;resizable=0;points=[];autosize=1;strokeColor=none;fillColor=none;" vertex="1" parent="1">
          <mxGeometry x="2000" y="270" width="190" height="30" as="geometry" />
        </mxCell>
        <mxCell id="BKznCU0ouDqVTdRnz1dK-136" value="userDao:" style="text;html=1;strokeColor=none;fillColor=none;align=center;verticalAlign=middle;whiteSpace=wrap;rounded=0;" vertex="1" parent="1">
          <mxGeometry x="2500" y="365" width="60" height="30" as="geometry" />
        </mxCell>
        <mxCell id="BKznCU0ouDqVTdRnz1dK-137" value="UserDao" style="rounded=0;whiteSpace=wrap;html=1;fillColor=#d5e8d4;strokeColor=#82b366;" vertex="1" parent="1">
          <mxGeometry x="2570" y="360" width="120" height="40" as="geometry" />
        </mxCell>
        <mxCell id="BKznCU0ouDqVTdRnz1dK-139" value="&lt;b&gt;&lt;font style=&quot;font-size: 13px;&quot;&gt;Level II: earlySingletonObjects&lt;/font&gt;&lt;/b&gt;" style="text;html=1;align=center;verticalAlign=middle;resizable=0;points=[];autosize=1;strokeColor=none;fillColor=none;" vertex="1" parent="1">
          <mxGeometry x="2240" y="270" width="210" height="30" as="geometry" />
        </mxCell>
        <mxCell id="BKznCU0ouDqVTdRnz1dK-140" value="&lt;b&gt;&lt;font style=&quot;font-size: 13px;&quot;&gt;Level I: singletonObjects&lt;/font&gt;&lt;/b&gt;" style="text;html=1;align=center;verticalAlign=middle;resizable=0;points=[];autosize=1;strokeColor=none;fillColor=none;" vertex="1" parent="1">
          <mxGeometry x="2505" y="270" width="180" height="30" as="geometry" />
        </mxCell>
        <mxCell id="BKznCU0ouDqVTdRnz1dK-141" value="" style="edgeStyle=orthogonalEdgeStyle;rounded=0;orthogonalLoop=1;jettySize=auto;html=1;" edge="1" parent="1" source="BKznCU0ouDqVTdRnz1dK-143" target="BKznCU0ouDqVTdRnz1dK-147">
          <mxGeometry relative="1" as="geometry" />
        </mxCell>
        <mxCell id="BKznCU0ouDqVTdRnz1dK-142" value="" style="edgeStyle=orthogonalEdgeStyle;rounded=0;orthogonalLoop=1;jettySize=auto;html=1;dashed=1;" edge="1" parent="1" source="BKznCU0ouDqVTdRnz1dK-143" target="BKznCU0ouDqVTdRnz1dK-153">
          <mxGeometry relative="1" as="geometry" />
        </mxCell>
        <mxCell id="BKznCU0ouDqVTdRnz1dK-143" value="Instantiate userService" style="rounded=1;whiteSpace=wrap;html=1;fillColor=#3FBD38;strokeColor=#000000;" vertex="1" parent="1">
          <mxGeometry x="1995" y="510" width="120" height="40" as="geometry" />
        </mxCell>
        <mxCell id="BKznCU0ouDqVTdRnz1dK-144" value="" style="edgeStyle=orthogonalEdgeStyle;rounded=0;orthogonalLoop=1;jettySize=auto;html=1;" edge="1" parent="1" source="BKznCU0ouDqVTdRnz1dK-145" target="BKznCU0ouDqVTdRnz1dK-143">
          <mxGeometry relative="1" as="geometry" />
        </mxCell>
        <mxCell id="BKznCU0ouDqVTdRnz1dK-145" value="&lt;b&gt;&lt;font style=&quot;font-size: 13px;&quot;&gt;getBean(*userService*)&lt;/font&gt;&lt;/b&gt;" style="text;html=1;align=center;verticalAlign=middle;resizable=0;points=[];autosize=1;strokeColor=none;fillColor=none;" vertex="1" parent="1">
          <mxGeometry x="1790" y="515" width="170" height="30" as="geometry" />
        </mxCell>
        <mxCell id="BKznCU0ouDqVTdRnz1dK-146" value="" style="edgeStyle=orthogonalEdgeStyle;rounded=0;orthogonalLoop=1;jettySize=auto;html=1;" edge="1" parent="1" source="BKznCU0ouDqVTdRnz1dK-147" target="BKznCU0ouDqVTdRnz1dK-150">
          <mxGeometry relative="1" as="geometry" />
        </mxCell>
        <mxCell id="BKznCU0ouDqVTdRnz1dK-147" value="userService Initialization&lt;br&gt;(property populate: userDao)" style="rounded=1;whiteSpace=wrap;html=1;fillColor=#ffe6cc;strokeColor=#000000;" vertex="1" parent="1">
          <mxGeometry x="2200" y="510" width="200" height="40" as="geometry" />
        </mxCell>
        <mxCell id="BKznCU0ouDqVTdRnz1dK-148" style="edgeStyle=orthogonalEdgeStyle;rounded=0;orthogonalLoop=1;jettySize=auto;html=1;" edge="1" parent="1" source="BKznCU0ouDqVTdRnz1dK-150" target="BKznCU0ouDqVTdRnz1dK-158">
          <mxGeometry relative="1" as="geometry">
            <Array as="points">
              <mxPoint x="2540" y="680" />
              <mxPoint x="2055" y="680" />
            </Array>
          </mxGeometry>
        </mxCell>
        <mxCell id="BKznCU0ouDqVTdRnz1dK-149" value="Not found!" style="edgeLabel;html=1;align=center;verticalAlign=middle;resizable=0;points=[];" vertex="1" connectable="0" parent="BKznCU0ouDqVTdRnz1dK-148">
          <mxGeometry x="0.1602" y="-1" relative="1" as="geometry">
            <mxPoint as="offset" />
          </mxGeometry>
        </mxCell>
        <mxCell id="BKznCU0ouDqVTdRnz1dK-150" value="Obtain userDao from Level I, II, III" style="shape=parallelogram;perimeter=parallelogramPerimeter;whiteSpace=wrap;html=1;fixedSize=1;fillColor=#dae8fc;strokeColor=#6c8ebf;" vertex="1" parent="1">
          <mxGeometry x="2470" y="500" width="140" height="60" as="geometry" />
        </mxCell>
        <mxCell id="BKznCU0ouDqVTdRnz1dK-151" value="" style="endArrow=classic;html=1;rounded=0;entryX=0.668;entryY=1.007;entryDx=0;entryDy=0;entryPerimeter=0;dashed=1;" edge="1" parent="1" target="BKznCU0ouDqVTdRnz1dK-133">
          <mxGeometry width="50" height="50" relative="1" as="geometry">
            <mxPoint x="2130" y="530" as="sourcePoint" />
            <mxPoint x="2130" y="420" as="targetPoint" />
          </mxGeometry>
        </mxCell>
        <mxCell id="BKznCU0ouDqVTdRnz1dK-152" value="Cache userService to Level III" style="edgeLabel;html=1;align=center;verticalAlign=middle;resizable=0;points=[];" vertex="1" connectable="0" parent="BKznCU0ouDqVTdRnz1dK-151">
          <mxGeometry x="0.112" relative="1" as="geometry">
            <mxPoint x="-50" y="-4" as="offset" />
          </mxGeometry>
        </mxCell>
        <mxCell id="BKznCU0ouDqVTdRnz1dK-153" value="Store userService into RAM" style="rounded=1;whiteSpace=wrap;html=1;fillColor=#f5f5f5;strokeColor=#666666;fontColor=#333333;" vertex="1" parent="1">
          <mxGeometry x="1995" y="590" width="120" height="40" as="geometry" />
        </mxCell>
        <mxCell id="BKznCU0ouDqVTdRnz1dK-154" value="addr: X001" style="text;html=1;align=center;verticalAlign=middle;resizable=0;points=[];autosize=1;strokeColor=none;fillColor=none;" vertex="1" parent="1">
          <mxGeometry x="1920" y="595" width="80" height="30" as="geometry" />
        </mxCell>
        <mxCell id="BKznCU0ouDqVTdRnz1dK-155" value="semi-completed Bean" style="text;html=1;align=center;verticalAlign=middle;resizable=0;points=[];autosize=1;strokeColor=none;fillColor=none;" vertex="1" parent="1">
          <mxGeometry x="1980" y="628" width="140" height="30" as="geometry" />
        </mxCell>
        <mxCell id="BKznCU0ouDqVTdRnz1dK-156" value="" style="edgeStyle=orthogonalEdgeStyle;rounded=0;orthogonalLoop=1;jettySize=auto;html=1;" edge="1" parent="1" source="BKznCU0ouDqVTdRnz1dK-158" target="BKznCU0ouDqVTdRnz1dK-162">
          <mxGeometry relative="1" as="geometry" />
        </mxCell>
        <mxCell id="BKznCU0ouDqVTdRnz1dK-157" value="" style="edgeStyle=orthogonalEdgeStyle;rounded=0;orthogonalLoop=1;jettySize=auto;html=1;dashed=1;" edge="1" parent="1" source="BKznCU0ouDqVTdRnz1dK-158" target="BKznCU0ouDqVTdRnz1dK-163">
          <mxGeometry relative="1" as="geometry" />
        </mxCell>
        <mxCell id="BKznCU0ouDqVTdRnz1dK-158" value="Instantiate userDao" style="rounded=1;whiteSpace=wrap;html=1;fillColor=#3FBD38;strokeColor=#000000;" vertex="1" parent="1">
          <mxGeometry x="1995" y="720" width="120" height="40" as="geometry" />
        </mxCell>
        <mxCell id="BKznCU0ouDqVTdRnz1dK-159" value="" style="endArrow=classic;html=1;rounded=0;entryX=0.809;entryY=1;entryDx=0;entryDy=0;entryPerimeter=0;dashed=1;" edge="1" parent="1" target="BKznCU0ouDqVTdRnz1dK-133">
          <mxGeometry width="50" height="50" relative="1" as="geometry">
            <mxPoint x="2160" y="740" as="sourcePoint" />
            <mxPoint x="2160" y="560" as="targetPoint" />
          </mxGeometry>
        </mxCell>
        <mxCell id="BKznCU0ouDqVTdRnz1dK-160" value="Cache userDao to Level III" style="edgeLabel;html=1;align=center;verticalAlign=middle;resizable=0;points=[];" vertex="1" connectable="0" parent="BKznCU0ouDqVTdRnz1dK-159">
          <mxGeometry x="0.112" relative="1" as="geometry">
            <mxPoint x="40" y="71" as="offset" />
          </mxGeometry>
        </mxCell>
        <mxCell id="BKznCU0ouDqVTdRnz1dK-161" value="" style="edgeStyle=orthogonalEdgeStyle;rounded=0;orthogonalLoop=1;jettySize=auto;html=1;" edge="1" parent="1" source="BKznCU0ouDqVTdRnz1dK-162" target="BKznCU0ouDqVTdRnz1dK-168">
          <mxGeometry relative="1" as="geometry" />
        </mxCell>
        <mxCell id="BKznCU0ouDqVTdRnz1dK-162" value="userDao Initialization&lt;br&gt;(property populate: userService)" style="rounded=1;whiteSpace=wrap;html=1;fillColor=#ffe6cc;strokeColor=#000000;" vertex="1" parent="1">
          <mxGeometry x="2200" y="720" width="200" height="40" as="geometry" />
        </mxCell>
        <mxCell id="BKznCU0ouDqVTdRnz1dK-163" value="Store userDao into RAM" style="rounded=1;whiteSpace=wrap;html=1;fillColor=#f5f5f5;strokeColor=#666666;fontColor=#333333;" vertex="1" parent="1">
          <mxGeometry x="1995" y="800" width="120" height="40" as="geometry" />
        </mxCell>
        <mxCell id="BKznCU0ouDqVTdRnz1dK-164" value="addr: X002" style="text;html=1;align=center;verticalAlign=middle;resizable=0;points=[];autosize=1;strokeColor=none;fillColor=none;" vertex="1" parent="1">
          <mxGeometry x="1920" y="805" width="80" height="30" as="geometry" />
        </mxCell>
        <mxCell id="BKznCU0ouDqVTdRnz1dK-165" value="semi-completed Bean" style="text;html=1;align=center;verticalAlign=middle;resizable=0;points=[];autosize=1;strokeColor=none;fillColor=none;" vertex="1" parent="1">
          <mxGeometry x="1985" y="840" width="140" height="30" as="geometry" />
        </mxCell>
        <mxCell id="BKznCU0ouDqVTdRnz1dK-166" value="" style="edgeStyle=orthogonalEdgeStyle;rounded=0;orthogonalLoop=1;jettySize=auto;html=1;" edge="1" parent="1" source="BKznCU0ouDqVTdRnz1dK-168" target="BKznCU0ouDqVTdRnz1dK-170">
          <mxGeometry relative="1" as="geometry" />
        </mxCell>
        <mxCell id="BKznCU0ouDqVTdRnz1dK-167" value="Level III has userService" style="edgeLabel;html=1;align=center;verticalAlign=middle;resizable=0;points=[];" vertex="1" connectable="0" parent="BKznCU0ouDqVTdRnz1dK-166">
          <mxGeometry x="-0.1744" y="4" relative="1" as="geometry">
            <mxPoint as="offset" />
          </mxGeometry>
        </mxCell>
        <mxCell id="BKznCU0ouDqVTdRnz1dK-168" value="Obtain userService from Level I, II, III" style="shape=parallelogram;perimeter=parallelogramPerimeter;whiteSpace=wrap;html=1;fixedSize=1;fillColor=#dae8fc;strokeColor=#6c8ebf;" vertex="1" parent="1">
          <mxGeometry x="2460" y="710" width="160" height="60" as="geometry" />
        </mxCell>
        <mxCell id="BKznCU0ouDqVTdRnz1dK-169" value="" style="edgeStyle=orthogonalEdgeStyle;rounded=0;orthogonalLoop=1;jettySize=auto;html=1;" edge="1" parent="1" source="BKznCU0ouDqVTdRnz1dK-170" target="BKznCU0ouDqVTdRnz1dK-172">
          <mxGeometry relative="1" as="geometry" />
        </mxCell>
        <mxCell id="BKznCU0ouDqVTdRnz1dK-170" value="From Level III obtain userService (useing Object&#39;s getObject() method and return userService&#39;s Object). Then Populate to userDao. Remove userService from Level III and cache into Level II" style="rounded=0;whiteSpace=wrap;html=1;dashed=1;" vertex="1" parent="1">
          <mxGeometry x="2840" y="700" width="250" height="80" as="geometry" />
        </mxCell>
        <mxCell id="BKznCU0ouDqVTdRnz1dK-175" value="" style="edgeStyle=orthogonalEdgeStyle;rounded=0;orthogonalLoop=1;jettySize=auto;html=1;" edge="1" parent="1" source="BKznCU0ouDqVTdRnz1dK-172" target="BKznCU0ouDqVTdRnz1dK-174">
          <mxGeometry relative="1" as="geometry" />
        </mxCell>
        <mxCell id="BKznCU0ouDqVTdRnz1dK-172" value="userDao&#39;s properties have been populated, continue userDao&#39;s other initialization process and to be a complete Bean object. Remove userDao from Level III and cache it into Level I&amp;nbsp;" style="rounded=0;whiteSpace=wrap;html=1;dashed=1;" vertex="1" parent="1">
          <mxGeometry x="2830" y="570" width="270" height="80" as="geometry" />
        </mxCell>
        <mxCell id="BKznCU0ouDqVTdRnz1dK-174" value="Populate userDao as reference property to userService, and continue other initialization process for userService. Thus, the userService become a completed Bean as well. Removed userService from Level II and cache into Level I&amp;nbsp;&amp;nbsp;" style="rounded=0;whiteSpace=wrap;html=1;dashed=1;" vertex="1" parent="1">
          <mxGeometry x="2830" y="435" width="270" height="80" as="geometry" />
        </mxCell>
        <mxCell id="BKznCU0ouDqVTdRnz1dK-176" value="userService:" style="text;html=1;strokeColor=none;fillColor=none;align=center;verticalAlign=middle;whiteSpace=wrap;rounded=0;" vertex="1" parent="1">
          <mxGeometry x="2500" y="320" width="60" height="30" as="geometry" />
        </mxCell>
        <mxCell id="BKznCU0ouDqVTdRnz1dK-177" value="UserService" style="rounded=0;whiteSpace=wrap;html=1;fillColor=#d5e8d4;strokeColor=#82b366;" vertex="1" parent="1">
          <mxGeometry x="2570" y="315" width="120" height="40" as="geometry" />
        </mxCell>
        <mxCell id="BKznCU0ouDqVTdRnz1dK-178" value="" style="endArrow=classic;html=1;rounded=0;strokeColor=#f40b0b;strokeWidth=4;dashed=1;dashPattern=1 2;entryX=0.5;entryY=1;entryDx=0;entryDy=0;exitX=0;exitY=0.5;exitDx=0;exitDy=0;" edge="1" parent="1" source="BKznCU0ouDqVTdRnz1dK-174" target="BKznCU0ouDqVTdRnz1dK-131">
          <mxGeometry width="50" height="50" relative="1" as="geometry">
            <mxPoint x="2886" y="570" as="sourcePoint" />
            <mxPoint x="2590" y="420" as="targetPoint" />
          </mxGeometry>
        </mxCell>
      </root>
    </mxGraphModel>
  </diagram>
</mxfile>
